HIERARCHY
ROOT Hips
{
	OFFSET -0.001795 -0.223333 0.028219
	CHANNELS 6 Xposition Yposition Zposition Zrotation Yrotation Xrotation 
	JOINT LeftUpLeg
	{
		OFFSET 0.069520 -0.091406 -0.006815
		CHANNELS 3 Zrotation Yrotation Xrotation
		JOINT LeftLeg
		{
			OFFSET 0.034277 -0.375199 -0.004496
			CHANNELS 3 Zrotation Yrotation Xrotation
			JOINT LeftFoot
			{
				OFFSET -0.013596 -0.397961 -0.043693
				CHANNELS 3 Zrotation Yrotation Xrotation
				JOINT LeftToe
				{
					OFFSET 0.026358 -0.055791 0.119288
					CHANNELS 3 Zrotation Yrotation Xrotation
					End Site
					{
						OFFSET 0.000000 0.000000 0.000000
					}
				}
			}
		}
	}
	JOINT RightUpLeg
	{
		OFFSET -0.067670 -0.090522 -0.004320
		CHANNELS 3 Zrotation Yrotation Xrotation
		JOINT RightLeg
		{
			OFFSET -0.038290 -0.382569 -0.008850
			CHANNELS 3 Zrotation Yrotation Xrotation
			JOINT RightFoot
			{
				OFFSET 0.015774 -0.398415 -0.042312
				CHANNELS 3 Zrotation Yrotation Xrotation
				JOINT RightToe
				{
					OFFSET -0.025372 -0.048144 0.123348
					CHANNELS 3 Zrotation Yrotation Xrotation
					End Site
					{
						OFFSET 0.000000 0.000000 0.000000
					}
				}
			}
		}
	}
	JOINT Spine
	{
		OFFSET -0.002533 0.108963 -0.026696
		CHANNELS 3 Zrotation Yrotation Xrotation
		JOINT Spine1
		{
			OFFSET 0.005487 0.135180 0.001092
			CHANNELS 3 Zrotation Yrotation Xrotation
			JOINT Spine2
			{
				OFFSET 0.001457 0.052922 0.025425
				CHANNELS 3 Zrotation Yrotation Xrotation
				JOINT Neck
				{
					OFFSET -0.002778 0.213870 -0.042857
					CHANNELS 3 Zrotation Yrotation Xrotation
					JOINT Head
					{
						OFFSET 0.005152 0.064970 0.051349
						CHANNELS 3 Zrotation Yrotation Xrotation
						End Site
						{
							OFFSET 0.000000 0.000000 0.000000
						}
					}
				}
				JOINT LeftShoulder
				{
					OFFSET 0.078845 0.121749 -0.034090
					CHANNELS 3 Zrotation Yrotation Xrotation
					JOINT LeftArm
					{
						OFFSET 0.090977 0.030469 -0.008868
						CHANNELS 3 Zrotation Yrotation Xrotation
						JOINT LeftForeArm
						{
							OFFSET 0.259612 -0.012772 -0.027456
							CHANNELS 3 Zrotation Yrotation Xrotation
							JOINT LeftHand
							{
								OFFSET 0.249234 0.008986 -0.001171
								CHANNELS 3 Zrotation Yrotation Xrotation
								End Site
								{
									OFFSET 0.000000 0.000000 0.000000
								}
							}
						}
					}
				}
				JOINT RightShoulder
				{
					OFFSET -0.081759 0.118833 -0.038615
					CHANNELS 3 Zrotation Yrotation Xrotation
					JOINT RightArm
					{
						OFFSET -0.096012 0.032551 -0.009143
						CHANNELS 3 Zrotation Yrotation Xrotation
						JOINT RightForeArm
						{
							OFFSET -0.253742 -0.013329 -0.021401
							CHANNELS 3 Zrotation Yrotation Xrotation
							JOINT RightHand
							{
								OFFSET -0.255298 0.007772 -0.005559
								CHANNELS 3 Zrotation Yrotation Xrotation
								End Site
								{
									OFFSET 0.000000 0.000000 0.000000
								}
							}
						}
					}
				}
			}
		}
	}
}
MOTION
Frames: 7
Frame Time: 0.050000
-0.190750 0.820027 0.228626 9.684708 -16.087713 -3.268624 -7.948327 -3.152997 -24.431223 -7.682515 7.838932 48.541300 8.122604 18.131004 -20.823342 0.000000 0.000000 0.000000 -13.149098 1.129284 -21.154340 14.441300 -1.072685 57.262426 -9.713921 -20.765811 -33.613190 0.000000 0.000000 0.000000 -1.409813 0.457273 -8.677642 22.549197 -13.365913 22.424567 -19.436886 2.451353 -3.713620 -6.009558 4.677675 -53.255298 0.000000 0.000000 0.000000 6.953391 18.197117 -3.591185 -49.849849 6.830085 -8.252390 -126.507686 -35.643927 65.075566 0.000000 0.000000 0.000000 -11.814486 -8.682133 -1.380688 49.452149 43.234843 15.216340 -172.196589 39.846154 -143.923364 0.000000 0.000000 0.000000 
-0.189247 0.849251 0.239908 10.044016 -15.131659 -2.557718 -9.317223 -3.070816 -20.644012 -7.335941 5.746586 40.251576 7.696958 16.984665 -14.390779 0.000000 0.000000 0.000000 -14.118844 0.905720 -18.158786 13.806235 -1.372385 48.250904 -10.079336 -21.950658 -27.145920 0.000000 0.000000 0.000000 -1.363570 0.599422 -10.818154 21.706891 -12.962690 21.747014 -19.431009 2.874752 -0.239061 -5.864246 4.616455 -56.073822 0.000000 0.000000 0.000000 5.955925 19.343790 -4.415428 -44.582603 -0.760402 -4.758569 -129.605010 -37.452575 72.783336 0.000000 0.000000 0.000000 -10.105254 -8.834467 -1.747788 43.100149 42.587183 12.020412 -177.534607 46.007821 -160.760020 0.000000 0.000000 0.000000 
-0.190010 0.871101 0.243956 9.089568 -13.758514 -1.112866 -8.865390 -2.662409 -17.627322 -7.282964 4.130574 32.366023 7.634043 16.712596 -10.331555 0.000000 0.000000 0.000000 -13.176300 0.868678 -16.598436 14.024982 -1.985022 41.780022 -10.542575 -24.369139 -21.404267 0.000000 0.000000 0.000000 -0.923806 0.754669 -12.592446 21.728443 -13.111176 20.600196 -19.726443 2.890709 1.595182 -6.679626 4.786325 -55.867664 0.000000 0.000000 0.000000 7.487298 19.916935 -4.174454 -43.057221 -5.881349 -3.002365 -125.651468 -37.919648 68.603918 0.000000 0.000000 0.000000 -11.334950 -9.748390 -1.901709 41.604047 44.367906 12.071599 176.033233 56.068112 -176.013242 0.000000 0.000000 0.000000 
-0.194070 0.903573 0.251337 8.482269 -13.838530 -0.045558 -8.961624 -2.023971 -12.826835 -5.902757 2.204587 21.148105 7.641843 16.254052 0.057708 0.000000 0.000000 0.000000 -10.696167 0.895870 -12.870468 10.982121 -0.997908 31.012948 -11.402521 -26.090390 -12.839177 0.000000 0.000000 0.000000 -0.842300 0.806501 -12.996284 20.054818 -11.885602 19.782171 -19.314129 3.111914 1.679258 -6.729884 4.817300 -55.276410 0.000000 0.000000 0.000000 8.931894 20.311496 -3.855243 -37.919610 -13.488649 -0.413174 -127.730272 -42.643293 78.532617 0.000000 0.000000 0.000000 -11.910410 -10.889189 -2.091433 33.567012 47.990388 10.299294 173.516010 61.308083 179.248686 0.000000 0.000000 0.000000 
-0.197308 0.917683 0.253627 7.363779 -13.630417 0.700512 -7.901881 -1.686380 -11.146853 -5.771958 1.769562 17.089225 7.997310 16.684115 4.397286 0.000000 0.000000 0.000000 -8.000073 0.887910 -11.070804 7.971218 -0.339070 24.167931 -12.192513 -27.689439 -6.251361 0.000000 0.000000 0.000000 -1.193002 0.781537 -13.111199 19.279186 -11.403303 19.492660 -18.760398 3.404782 2.113517 -7.818359 4.995136 -56.508313 0.000000 0.000000 0.000000 7.102795 20.853843 -4.571134 -31.922016 -17.416648 0.509089 -127.868509 -47.608482 85.802361 0.000000 0.000000 0.000000 -11.182590 -11.681295 -2.440725 27.740002 50.979111 8.804130 163.671945 65.112601 163.875157 0.000000 0.000000 0.000000 
-0.204849 0.927071 0.257829 6.894258 -14.514523 0.575639 -7.718206 -1.289521 -8.359418 -4.383818 1.132754 13.119971 7.750963 16.070662 6.959797 0.000000 0.000000 0.000000 -6.342504 0.779153 -8.435801 6.103396 -0.078794 17.961774 -12.788815 -28.356324 -1.487537 0.000000 0.000000 0.000000 -2.196271 0.658983 -12.238909 17.140520 -9.995441 20.757973 -18.734457 4.416339 -1.754882 -7.443377 5.086528 -52.651420 0.000000 0.000000 0.000000 9.143478 20.412925 -3.371358 -26.720517 -22.485002 1.542373 -139.841199 -58.672155 114.505829 0.000000 0.000000 0.000000 -11.642164 -12.377635 -2.635067 24.822858 52.341541 8.538313 170.138830 64.420681 174.709539 0.000000 0.000000 0.000000 
-0.208609 0.927114 0.259566 6.760621 -12.633051 0.444506 -7.515130 -1.209968 -7.895006 -4.934231 1.190481 12.972920 8.480144 17.521120 6.637145 0.000000 0.000000 0.000000 -6.567879 0.702312 -7.640395 5.452406 -0.131064 15.626687 -12.930515 -28.697307 2.406825 0.000000 0.000000 0.000000 -2.807429 0.482377 -11.002666 17.073450 -10.399181 21.118349 -19.940386 4.396445 -4.228770 -9.893684 5.490667 -53.623505 0.000000 0.000000 0.000000 5.800741 20.250872 -4.132376 -23.088157 -25.664465 1.939859 -173.919948 -70.929855 171.317210 0.000000 0.000000 0.000000 -10.336526 -14.739318 -3.549480 25.875860 52.769155 9.578154 171.382987 57.293610 176.598166 0.000000 0.000000 0.000000 
